<svg width="23" height="23" viewBox="0 0 23 23" fill="none" xmlns="http://www.w3.org/2000/svg">
<path d="M20.125 15.9293V7.07071C20.1243 6.94275 20.0899 6.81723 20.0252 6.70682C19.9606 6.5964 19.8679 6.50499 19.7566 6.4418L11.8504 1.99454C11.7439 1.93303 11.623 1.90065 11.5 1.90065C11.377 1.90065 11.2561 1.93303 11.1496 1.99454L3.24336 6.4418C3.13209 6.50499 3.03945 6.5964 2.97477 6.70682C2.9101 6.81723 2.87569 6.94275 2.875 7.07071V15.9293C2.87569 16.0573 2.9101 16.1828 2.97477 16.2932C3.03945 16.4036 3.13209 16.495 3.24336 16.5582L11.1496 21.0055C11.2561 21.067 11.377 21.0994 11.5 21.0994C11.623 21.0994 11.7439 21.067 11.8504 21.0055L19.7566 16.5582C19.8679 16.495 19.9606 16.4036 20.0252 16.2932C20.0899 16.1828 20.1243 16.0573 20.125 15.9293V15.9293Z" stroke="#FF62B2" stroke-linecap="round" stroke-linejoin="round"/>
<path d="M20.0262 6.70235L11.5809 11.5L2.97383 6.70235" stroke="#FF62B2" stroke-linecap="round" stroke-linejoin="round"/>
<path d="M11.5809 11.5L11.5 21.0953" stroke="#FF62B2" stroke-linecap="round" stroke-linejoin="round"/>
</svg>
