<svg width="30" height="30" viewBox="0 0 30 30" fill="none" xmlns="http://www.w3.org/2000/svg">
<rect width="30" height="30" rx="15" fill="url(#paint0_radial_14_487)"/>
<path d="M15 7.55874C17.1867 7.55874 17.4849 7.55874 18.3795 7.55874C19.1747 7.55874 19.5723 7.76657 19.8705 7.87048C20.2681 8.07831 20.5663 8.18223 20.8645 8.49398C21.1627 8.80572 21.3614 9.11747 21.4608 9.53313C21.5602 9.84488 21.6596 10.2605 21.759 11.0919C21.759 12.0271 21.759 12.2349 21.759 14.625C21.759 17.0151 21.759 17.2229 21.759 18.1581C21.759 18.9895 21.5602 19.4051 21.4608 19.7169C21.262 20.1325 21.1627 20.4443 20.8645 20.756C20.5663 21.0678 20.2681 21.2756 19.8705 21.3795C19.5723 21.4834 19.1747 21.5873 18.3795 21.6913C17.4849 21.6913 17.2861 21.6913 15 21.6913C12.7139 21.6913 12.5151 21.6913 11.6205 21.6913C10.8253 21.6913 10.4277 21.4834 10.1295 21.3795C9.73193 21.1717 9.43374 21.0678 9.13554 20.756C8.83735 20.4443 8.63855 20.1325 8.53916 19.7169C8.43976 19.4051 8.34036 18.9895 8.24096 18.1581C8.24096 17.2229 8.24096 17.0151 8.24096 14.625C8.24096 12.2349 8.24096 12.0271 8.24096 11.0919C8.24096 10.2605 8.43976 9.84488 8.53916 9.53313C8.73795 9.11747 8.83735 8.80572 9.13554 8.49398C9.43374 8.18223 9.73193 7.9744 10.1295 7.87048C10.4277 7.76657 10.8253 7.66265 11.6205 7.55874C12.5151 7.55874 12.8133 7.55874 15 7.55874ZM15 6C12.7139 6 12.5151 6 11.6205 6C10.7259 6 10.1295 6.20783 9.63253 6.41566C9.13554 6.62349 8.63855 6.93524 8.14157 7.45482C7.64458 7.9744 7.44578 8.39006 7.14759 9.01356C6.9488 9.53313 6.8494 10.1566 6.75 11.0919C6.75 12.0271 6.75 12.3389 6.75 14.625C6.75 17.0151 6.75 17.2229 6.75 18.1581C6.75 19.0934 6.9488 19.7169 7.14759 20.2364C7.34639 20.756 7.64458 21.2756 8.14157 21.7952C8.63855 22.3148 9.03615 22.5226 9.63253 22.8343C10.1295 23.0422 10.7259 23.1461 11.6205 23.25C12.5151 23.25 12.8133 23.25 15 23.25C17.1867 23.25 17.4849 23.25 18.3795 23.25C19.2741 23.25 19.8705 23.0422 20.3675 22.8343C20.8645 22.6265 21.3614 22.3148 21.8584 21.7952C22.3554 21.2756 22.5542 20.8599 22.8524 20.2364C23.0512 19.7169 23.1506 19.0934 23.25 18.1581C23.25 17.2229 23.25 16.9111 23.25 14.625C23.25 12.3389 23.25 12.0271 23.25 11.0919C23.25 10.1566 23.0512 9.53313 22.8524 9.01356C22.6536 8.49398 22.3554 7.9744 21.8584 7.45482C21.3614 6.93524 20.9639 6.72741 20.3675 6.41566C19.8705 6.20783 19.2741 6.10392 18.3795 6C17.4849 6 17.2861 6 15 6Z" fill="white"/>
<path d="M15 10.1566C12.6145 10.1566 10.7259 12.131 10.7259 14.625C10.7259 17.119 12.6145 19.0934 15 19.0934C17.3855 19.0934 19.2741 17.119 19.2741 14.625C19.2741 12.131 17.3855 10.1566 15 10.1566ZM15 17.5346C13.509 17.5346 12.2169 16.2877 12.2169 14.625C12.2169 13.0663 13.4096 11.7154 15 11.7154C16.491 11.7154 17.7831 12.9623 17.7831 14.625C17.7831 16.1837 16.491 17.5346 15 17.5346Z" fill="white"/>
<path d="M19.3735 11.0919C19.9225 11.0919 20.3675 10.6266 20.3675 10.0527C20.3675 9.4788 19.9225 9.01356 19.3735 9.01356C18.8245 9.01356 18.3795 9.4788 18.3795 10.0527C18.3795 10.6266 18.8245 11.0919 19.3735 11.0919Z" fill="white"/>
<defs>
<radialGradient id="paint0_radial_14_487" cx="0" cy="0" r="1" gradientUnits="userSpaceOnUse" gradientTransform="translate(30.6035 0.609376) scale(69.2789)">
<stop stop-color="#F9ED32"/>
<stop offset="0.36" stop-color="#EE2A7B"/>
<stop offset="0.44" stop-color="#D22A8A"/>
<stop offset="0.6" stop-color="#8B2AB2"/>
<stop offset="0.83" stop-color="#1B2AF0"/>
<stop offset="0.88" stop-color="#002AFF"/>
</radialGradient>
</defs>
</svg>
