<svg width="30" height="30" viewBox="0 0 30 30" fill="none" xmlns="http://www.w3.org/2000/svg">
<g clip-path="url(#clip0_14_490)">
<rect width="30" height="30" rx="15" fill="#111111"/>
<path d="M22.4763 11.457C21.9589 11.457 21.4465 11.3551 20.9685 11.1571C20.4904 10.9591 20.056 10.6689 19.6902 10.303C19.3243 9.93714 19.0341 9.50278 18.836 9.02474C18.638 8.54669 18.5361 8.03433 18.5361 7.5169H15.7211V18.5399C15.7206 19.0425 15.5619 19.5322 15.2675 19.9395C14.9732 20.3468 14.5581 20.6512 14.0811 20.8094C13.604 20.9677 13.0893 20.9718 12.6099 20.8211C12.1304 20.6705 11.7105 20.3728 11.4097 19.9702C11.1089 19.5676 10.9424 19.0806 10.9339 18.5781C10.9254 18.0756 11.0752 17.5831 11.3621 17.1706C11.6491 16.758 12.0586 16.4462 12.5327 16.2793C13.0068 16.1125 13.5213 16.0991 14.0034 16.2411V13.5047C12.9789 13.3665 11.9365 13.5442 11.0156 14.0141C10.0947 14.4839 9.33907 15.2235 8.84957 16.1341C8.36007 17.0447 8.16002 18.083 8.27614 19.1103C8.39226 20.1375 8.81901 21.105 9.49942 21.8833C10.1798 22.6617 11.0815 23.214 12.084 23.4664C13.0866 23.7188 14.1423 23.6594 15.1102 23.296C16.078 22.9326 16.912 22.2826 17.5007 21.4328C18.0895 20.583 18.4049 19.5738 18.405 18.5399L18.4867 12.9681C19.6433 13.8172 21.0412 14.2741 22.476 14.2719L22.4763 11.457Z" fill="url(#paint0_linear_14_490)"/>
<path d="M21.7322 10.6902C20.6872 10.6902 19.685 10.275 18.9461 9.53611C18.2072 8.79718 17.7921 7.795 17.7921 6.75002H14.9771V17.7731C14.9766 18.2756 14.8179 18.7653 14.5236 19.1726C14.2292 19.58 13.8141 19.8843 13.3371 20.0426C12.8601 20.2008 12.3454 20.2049 11.8659 20.0543C11.3865 19.9037 10.9666 19.606 10.6657 19.2034C10.3649 18.8008 10.1984 18.3138 10.1899 17.8113C10.1814 17.3088 10.3312 16.8163 10.6181 16.4037C10.9051 15.9912 11.3146 15.6793 11.7887 15.5125C12.2628 15.3457 12.7773 15.3323 13.2594 15.4742V12.7378C12.2349 12.5997 11.1926 12.7774 10.2716 13.2472C9.35074 13.717 8.59509 14.4566 8.10558 15.3672C7.61608 16.2778 7.41603 17.3161 7.53215 18.3434C7.64827 19.3707 8.07503 20.3381 8.75543 21.1164C9.43584 21.8948 10.3375 22.4471 11.3401 22.6995C12.3426 22.9519 13.3983 22.8925 14.3662 22.5291C15.334 22.1657 16.168 21.5158 16.7568 20.6659C17.3455 19.8161 17.661 18.8069 17.661 17.7731L17.7431 12.2013C18.8998 13.0503 20.2976 13.5072 21.7324 13.505L21.7322 10.6902Z" fill="url(#paint1_linear_14_490)"/>
<path d="M21.7322 11.3866C20.7582 11.1992 19.8907 10.6513 19.3029 9.85243C18.56 9.271 18.0504 8.44226 17.8668 7.5169H15.7213V18.5399C15.7212 19.0631 15.55 19.5719 15.2337 19.9886C14.9175 20.4053 14.4735 20.7071 13.9697 20.8479C13.4658 20.9887 12.9297 20.9607 12.4432 20.7683C11.9568 20.5759 11.5466 20.2296 11.2754 19.7822C10.7931 19.4683 10.4398 18.9913 10.2802 18.4384C10.1205 17.8855 10.1652 17.2936 10.4059 16.7709C10.6466 16.2482 11.0674 15.8296 11.5914 15.5915C12.1153 15.3534 12.7074 15.3118 13.2594 15.4743V13.4606C12.3125 13.4728 11.3878 13.7494 10.5898 14.2593C9.79174 14.7692 9.1521 15.4919 8.74307 16.3461C8.33404 17.2002 8.1719 18.1517 8.27495 19.0931C8.37801 20.0344 8.74215 20.9283 9.32628 21.6737C10.0679 22.2925 10.9705 22.687 11.9283 22.8111C12.8861 22.9352 13.8595 22.7837 14.7343 22.3743C15.609 21.9649 16.349 21.3146 16.8674 20.4997C17.3857 19.6847 17.661 18.7389 17.661 17.7731L17.7431 12.2013C18.8998 13.0504 20.2976 13.5072 21.7324 13.5051L21.7322 11.3866Z" fill="url(#paint2_linear_14_490)"/>
</g>
<defs>
<linearGradient id="paint0_linear_14_490" x1="9.37217" y1="21.7716" x2="21.0815" y2="10.0622" gradientUnits="userSpaceOnUse">
<stop stop-color="#B5053C"/>
<stop offset="0.233" stop-color="#C90441"/>
<stop offset="0.737" stop-color="#F0014B"/>
<stop offset="1" stop-color="#FF004F"/>
</linearGradient>
<linearGradient id="paint1_linear_14_490" x1="8.45373" y1="21.179" x2="20.788" y2="8.84476" gradientUnits="userSpaceOnUse">
<stop stop-color="#00B2C9"/>
<stop offset="0.283" stop-color="#00C8D4"/>
<stop offset="0.741" stop-color="#00E6E4"/>
<stop offset="1" stop-color="#00F1EA"/>
</linearGradient>
<linearGradient id="paint2_linear_14_490" x1="1.54349" y1="28.8448" x2="28.8455" y2="1.54284" gradientUnits="userSpaceOnUse">
<stop stop-color="#DDE3E4"/>
<stop offset="1" stop-color="#FCF7F7"/>
</linearGradient>
<clipPath id="clip0_14_490">
<rect width="30" height="30" fill="white"/>
</clipPath>
</defs>
</svg>
